<svg xmlns="http://www.w3.org/2000/svg" width="39" height="38" viewBox="0 0 39 38" fill="none">
  <g clip-path="url(#clip0_8_30)">
    <path d="M19.5 0C9.05 0 0.5 8.55 0.5 19C0.5 29.45 9.05 38 19.5 38C29.95 38 38.5 29.45 38.5 19C38.5 8.55 30.045 0 19.5 0ZM28.2416 27.455C27.8616 28.0234 27.1966 28.215 26.625 27.835C22.16 25.08 16.555 24.5084 9.90342 26.0284C9.24158 26.2216 8.67 25.745 8.48 25.175C8.29 24.5084 8.765 23.94 9.335 23.75C16.555 22.1334 22.825 22.8 27.765 25.84C28.43 26.125 28.5234 26.8834 28.2416 27.455ZM30.5216 22.23C30.045 22.895 29.19 23.18 28.5234 22.705C23.395 19.57 15.605 18.62 9.62 20.52C8.86158 20.71 8.005 20.33 7.815 19.57C7.625 18.81 8.005 17.9534 8.765 17.7634C15.7 15.675 24.25 16.7216 30.14 20.33C30.7116 20.6166 30.995 21.565 30.5216 22.23ZM30.7116 16.91C24.63 13.3 14.465 12.92 8.67 14.7266C7.72 15.01 6.77 14.44 6.485 13.585C6.2 12.6334 6.77 11.685 7.625 11.3984C14.37 9.40342 25.485 9.78342 32.5166 13.965C33.37 14.44 33.655 15.58 33.18 16.435C32.7066 17.1016 31.565 17.3834 30.7116 16.91Z" fill="black"/>
  </g>
  <defs>
    <clipPath id="clip0_8_30">
      <rect width="38" height="38" fill="white" transform="translate(0.5)"/>
    </clipPath>
  </defs>
</svg>